<svg xmlns="http://www.w3.org/2000/svg" width="1200" height="630" viewBox="0 0 1200 630">
  <defs>
    <pattern id="grid" width="48" height="48" patternUnits="userSpaceOnUse">
      <path d="M48 0H0V48" fill="none" stroke="#5AD1FF" stroke-opacity="0.055"/>
    </pattern>
  </defs>

  <rect width="1200" height="630" fill="#050608"/>
  <rect width="1200" height="630" fill="url(#grid)"/>
  <rect x="0" y="0" width="12" height="630" fill="#5AD1FF"/>

  <g transform="translate(72 68) scale(.62)">
    <rect x="22" y="2" width="20" height="20" fill="#F3F5F8"/>
    <rect x="50" y="0" width="26" height="26" fill="#5AD1FF"/>
    <path d="M0 34H42V80H20V58H0Z" fill="#F3F5F8"/>
    <rect x="50" y="34" width="26" height="24" fill="#F3F5F8"/>
  </g>
  <text x="140" y="111" font-family="Manrope,Arial,sans-serif" font-size="33" font-weight="600" letter-spacing="-1.5" fill="#F3F5F8">stormglide<tspan fill="#5AD1FF">.io</tspan></text>

  <text x="72" y="268" font-family="Manrope,Arial,sans-serif" font-size="68" font-weight="700" letter-spacing="-2" fill="#F3F5F8">Software company</text>
  <text x="72" y="346" font-family="Manrope,Arial,sans-serif" font-size="68" font-weight="700" letter-spacing="-2" fill="#5AD1FF">built in Accra.</text>
  <text x="72" y="410" font-family="Manrope,Arial,sans-serif" font-size="25" font-weight="400" fill="#A7B3BF">Websites, web apps, mobile apps, SaaS and business systems.</text>

  <g transform="translate(72 486)">
    <rect width="218" height="54" rx="27" fill="#0C1018" stroke="#5AD1FF" stroke-opacity="0.34"/>
    <circle cx="28" cy="27" r="5" fill="#5AD1FF"/>
    <text x="46" y="35" font-family="Manrope,Arial,sans-serif" font-size="18" font-weight="600" fill="#D8E2EA">Accra, Ghana</text>

    <rect x="234" width="264" height="54" rx="27" fill="#0C1018" stroke="#F3F5F8" stroke-opacity="0.13"/>
    <text x="263" y="35" font-family="Manrope,Arial,sans-serif" font-size="18" font-weight="600" fill="#D8E2EA">Built for African operations</text>
  </g>

  <g transform="translate(885 150)">
    <rect width="245" height="330" rx="24" fill="#0C1018" stroke="#5AD1FF" stroke-opacity="0.28"/>
    <rect x="24" y="26" width="197" height="12" rx="6" fill="#5AD1FF" fill-opacity="0.34"/>
    <rect x="24" y="62" width="118" height="10" rx="5" fill="#F3F5F8" fill-opacity="0.76"/>
    <rect x="24" y="86" width="178" height="8" rx="4" fill="#F3F5F8" fill-opacity="0.2"/>
    <rect x="24" y="126" width="92" height="76" rx="12" fill="#111827"/>
    <rect x="129" y="126" width="92" height="76" rx="12" fill="#111827"/>
    <rect x="24" y="220" width="197" height="82" rx="12" fill="#111827"/>
    <path d="M46 277L78 253L108 266L143 236L198 249" fill="none" stroke="#5AD1FF" stroke-width="6" stroke-linecap="round" stroke-linejoin="round"/>
  </g>

  <text x="1128" y="586" text-anchor="end" font-family="Space Mono,monospace" font-size="15" fill="#F3F5F8" fill-opacity="0.4">stormglide.io</text>
</svg>
